<svg width="240" height="160" viewBox="0 0 240 160" fill="none" xmlns="http://www.w3.org/2000/svg">
  <defs>
    <radialGradient id="baseGlow" cx="0" cy="0" r="1" gradientUnits="userSpaceOnUse" gradientTransform="translate(52 122) rotate(-25) scale(210 180)">
      <stop offset="0" stop-color="#1E7A3E"/>
      <stop offset="0.46" stop-color="#0E5D35"/>
      <stop offset="1" stop-color="#061A11"/>
    </radialGradient>
    <linearGradient id="topFade" x1="120" y1="0" x2="120" y2="64" gradientUnits="userSpaceOnUse">
      <stop stop-color="#031109" stop-opacity="0.5"/>
      <stop offset="1" stop-color="#031109" stop-opacity="0"/>
    </linearGradient>
  </defs>

  <rect width="240" height="160" rx="20" fill="url(#baseGlow)"/>

  <!-- ring lines pushed to right side -->
  <path d="M75 200C124 142 172 104 262 72" stroke="#6DE668" stroke-opacity="0.24" stroke-width="6"/>
  <path d="M72 188C121 132 170 94 258 64" stroke="#5FD55D" stroke-opacity="0.29" stroke-width="5.5"/>
  <path d="M69 176C118 122 167 86 254 58" stroke="#56C956" stroke-opacity="0.34" stroke-width="5"/>
  <path d="M66 164C115 112 164 78 250 52" stroke="#4CBD50" stroke-opacity="0.38" stroke-width="4.5"/>
  <path d="M63 153C113 104 161 72 246 47" stroke="#41AE49" stroke-opacity="0.41" stroke-width="4"/>
  <path d="M60 142C110 97 158 66 242 43" stroke="#389F42" stroke-opacity="0.35" stroke-width="3.5"/>

  <!-- slight dark contour rings -->
  <path d="M79 205C128 146 177 108 266 76" stroke="#001D10" stroke-opacity="0.32" stroke-width="7"/>
  <path d="M76 193C125 136 174 98 262 68" stroke="#001D10" stroke-opacity="0.28" stroke-width="6"/>
  <path d="M73 181C122 126 171 90 258 62" stroke="#001D10" stroke-opacity="0.24" stroke-width="5"/>

  <rect width="240" height="160" rx="20" fill="url(#topFade)"/>
</svg>
